<?xml version="1.0" encoding="UTF-8"?>
<svg id="Layer_2" data-name="Layer 2" xmlns="http://www.w3.org/2000/svg" viewBox="0 0 657.18 131.72">
  <defs>
    <style>
      .cls-1 {
        fill: #e18792;
      }

      .cls-1, .cls-2 {
        stroke-width: 0px;
      }

      .cls-2 {
        fill: #af415f;
      }
    </style>
  </defs>
  <g id="Layer_1-2" data-name="Layer 1">
    <g>
      <path class="cls-2" d="M129.05,1.71h-41.4c-.75,6.04-1.46,11.74-2.12,17.03h-39.44c-1.22-6.18-2.3-11.64-3.42-17.29H0c6.83,43.95,15.25,86.4,21.98,129.72l131.5.17,2.09-12.42,9.42-.08,2.95,12.63,42.64.12-3.17-19.33s10.49,18,35.56,18c21.61,0,32.57-14.21,36.92-19.77,4.35-5.56,4.14-5.95,5.14-7.1l-.49,27.54,94.94.5,1.98-13.61,11.66.11,1.41,13.45h40.46l-16.31-107.7,24.1,63.81-.22,43.22,41.43.17.04-42.84,21.53-54.56.11,97.92h95.53l1.92-13.03,10.89-.11,2.83,13.35,40.33.11L636.73,1.93h-57.24c-4.8,29.55-14.29,88.02-14.29,88.02h-18.08l.45-88.02-75.14-.13-8.6,26.63-8.23-26.66h-97.07c-4.76,29.6-9.47,58.86-14.08,87.55-7.25,0-19.76.05-19.76.05l.85-87.8h-41l-.13,27.85c-10.17-22.75-31.84-32.88-50.84-28.38-24.67,4.83-35.96,22.24-35.99,44.38l-7.2-43.85h-58.18l-3.13.14ZM73.59,123.81l-7.46-39.13c-.66-.04-1.32-.08-1.98-.12,0,0-5.42,25.54-8.24,38.87-8.86,0-27.59-.03-27.59-.03L8.5,8.8c7.84,0,28.84-.21,28.84-.21l9.53,59.28,6.07-41.02h25.63l6.2,42.28,9.69-60.41h26.85c-5.93,38.16-18.86,115.08-18.86,115.08h-28.86ZM201.87,123.7h-28.36l-2.61-12.03-20.45-.24-2.26,12.38h-28.36s12.31-76.5,18.49-114.95h44.96c6.15,37.92,12.33,76.04,18.62,114.83h-.04ZM255.1,121.45c-18.52,7.9-48.85-6.41-48.21-32.97.37-15.24-.59-30.51-.78-45.77-.19-14.69,10.63-30.79,28.78-33.41,22.88-3.31,37.24,11.07,43.36,27.63.87,2.36.66,5.12.95,7.7h-27.27c-1.2-6.18-4.56-8.88-10.66-8.26-4.15.42-7.05,2.37-7.12,6.25-.26,15.75-.26,31.52.12,47.27.1,3.97,3.24,6.54,7.54,6.53,5.44-.02,8.76-2.62,9.18-7.24.27-2.95.05-5.94.05-9.3-2.64-.25-4.88-.47-7.51-.72v-26.44h35.48l.17,34.65c1.02,15.3-11.97,28.91-24.08,34.07ZM427.16,123.6h-27.15c-.18-4.11-.96-7.55-1.14-11.6h-22.79c-.52,3.54-1.1,7.52-1.71,11.66h-82.69V8.28h26.25v87.78h32.95c4.52-29.2,8.99-58.07,13.51-87.31h45.65c5.68,38.09,11.39,76.38,17.13,114.84ZM498.05,30.24c-6.75,17.59-13.56,35.15-20.33,52.73-.3.77-.61,1.6-.61,2.4-.04,12.56-.03,38.31-.03,38.31h-27.07l.22-39.1-29.95-75.9h30.22l13.15,38.4,13.88-38.53h28.61c-2.81,7.54-5.38,14.63-8.08,21.68ZM619.59,111.88h-22.54c-.52,3.79-1.06,7.67-1.62,11.72h-82.04V8.81h26.68v88.31l30.24-.04s10.65-59.95,15.15-88.42h44.64c6.07,38.47,12.08,76.6,18.17,115.2h-26.36l-2.31-11.98Z"/>
      <path class="cls-2" d="M600.65,84.06h14.91l-8.18-53.47c-2.17,14.55-4.48,38.45-6.72,53.47Z"/>
      <path class="cls-1" d="M630.09,8.65h-44.64c-4.49,28.47-15.15,88.42-15.15,88.42l-30.24.04V8.81h-26.68v114.79h82.04c.56-4.05,1.1-7.93,1.62-11.72h22.54l2.31,11.98h26.36c-6.09-38.61-12.1-76.73-18.17-115.2ZM600.65,84.06c2.24-15.01,4.55-38.92,6.72-53.47l8.18,53.47h-14.91Z"/>
      <path class="cls-1" d="M364.39,8.76c-4.52,29.23-8.99,58.1-13.51,87.31h-32.95V8.28h-26.25v115.38h82.69c.61-4.14,1.19-8.12,1.71-11.66h22.79c.18,4.05.96,7.49,1.14,11.6h27.15c-5.74-38.46-11.45-76.75-17.13-114.84h-45.65ZM379.47,83.9c2.17-14.41,7.11-53.3,7.11-53.3l7.11,53.3h-14.21Z"/>
      <path class="cls-1" d="M121.31,8.72h-26.85l-9.69,60.41-6.2-42.28h-25.63l-6.07,41.02-9.53-59.28s-21,.21-28.84.21l19.81,114.6s18.73.03,27.59.03c2.83-13.33,8.24-38.87,8.24-38.87.66.04,1.32.08,1.98.12l7.46,39.13h28.86s12.92-76.92,18.86-115.08Z"/>
      <path class="cls-1" d="M183.25,8.86h-44.93c-6.19,38.45-18.49,114.95-18.49,114.95h28.36l2.26-12.38,20.45.24,2.61,12.03h28.4c-6.29-38.79-12.47-76.91-18.62-114.83h-.04ZM160.91,29.09l7.43,54.86h-14.9c.07-.46.15-.91.22-1.37l7.24-53.49Z"/>
      <path class="cls-1" d="M279.01,52.72h-35.48v26.44c2.63.25,4.87.47,7.51.72,0,3.36.22,6.35-.05,9.3-.42,4.62-3.74,7.22-9.18,7.24-4.3.02-7.44-2.56-7.54-6.53-.38-15.75-.38-31.52-.12-47.27.06-3.88,2.96-5.83,7.12-6.25,6.09-.62,9.45,2.08,10.66,8.26h27.27c-.29-2.58-.07-5.34-.95-7.7-6.12-16.55-20.48-30.93-43.36-27.63-18.16,2.62-28.97,18.72-28.78,33.41.19,15.26,1.15,30.53.78,45.77-.64,26.56,29.69,40.87,48.21,32.97,12.12-5.17,25.1-18.77,24.08-34.07l-.17-34.65Z"/>
      <path class="cls-1" d="M463.65,47.09l-13.15-38.4h-30.22l29.95,75.9-.22,39.1h27.07s-.01-25.75.03-38.31c0-.8.31-1.63.61-2.4,6.77-17.58,13.58-35.14,20.33-52.73,2.7-7.05,5.28-14.15,8.08-21.68h-28.61l-13.88,38.53Z"/>
      <path class="cls-2" d="M379.47,83.9h14.21l-7.11-53.3s-4.93,38.9-7.11,53.3Z"/>
      <path class="cls-2" d="M153.48,83.95h14.86l-7.43-54.86-7.24,53.49c-.07.46-.15.91-.22,1.37h.04Z"/>
    </g>
  </g>
</svg>